<svg width="35.000000" height="35.000000" viewBox="0 0 35 35" fill="none" xmlns="http://www.w3.org/2000/svg" xmlns:xlink="http://www.w3.org/1999/xlink">
	<desc>
			Created with Pixso.
	</desc>
	<defs>
		<clipPath id="clip22104_6505">
			<rect id="Group 9 (1)" rx="0.000000" width="34.000000" height="34.000000" transform="translate(0.500000 0.500000)" fill="white" fill-opacity="0"/>
		</clipPath>
	</defs>
	<rect id="Group 9 (1)" rx="0.000000" width="34.000000" height="34.000000" transform="translate(0.500000 0.500000)" fill="#FFFFFF" fill-opacity="0"/>
	<g clip-path="url(#clip22104_6505)">
		<path id="Vector" d="M34.88 17.43C34.88 27.06 27.08 34.87 17.45 34.87C7.82 34.87 0.01 27.06 0.01 17.43C0.01 7.8 7.82 0 17.45 0C27.08 0 34.88 7.8 34.88 17.43Z" fill="#F15525" fill-opacity="1.000000" fill-rule="nonzero"/>
		<path id="Vector" d="M19.21 12.91L21.24 12.91L21.24 9.97L18.86 9.97L18.86 9.98C15.97 10.08 15.38 11.67 15.33 13.35L15.32 13.35L15.32 14.81L13.36 14.81L13.36 17.69L15.32 17.69L15.32 25.41L18.28 25.41L18.28 17.69L20.71 17.69L21.18 14.81L18.29 14.81L18.29 13.93C18.29 13.36 18.67 12.91 19.21 12.91Z" fill="#FFFFFF" fill-opacity="1.000000" fill-rule="nonzero"/>
	</g>
</svg>
